<?xml version="1.0" encoding="utf-8"?>
<!-- Generator: Adobe Illustrator 19.0.0, SVG Export Plug-In . SVG Version: 6.00 Build 0)  -->
<svg version="1.1" id="Layer_1" xmlns="http://www.w3.org/2000/svg" xmlns:xlink="http://www.w3.org/1999/xlink" x="0px" y="0px"
	 viewBox="0 0 232 147.1" style="enable-background:new 0 0 232 147.1;" xml:space="preserve">
<style type="text/css">
	.st0{fill:none;stroke:#5A5B5B;stroke-width:2;stroke-linecap:round;stroke-linejoin:round;stroke-miterlimit:10;}
</style>
<path id="XMLID_261_" class="st0" d="M27.2,67.3c0-22.2,18-40.2,40.2-40.2c5,0,9.8,0.9,14.3,2.6"/>
<line id="XMLID_260_" class="st0" x1="67.3" y1="12.8" x2="67.3" y2="1"/>
<line id="XMLID_259_" class="st0" x1="40.1" y1="20.1" x2="34.2" y2="9.9"/>
<line id="XMLID_258_" class="st0" x1="20.1" y1="40.1" x2="9.9" y2="34.2"/>
<line id="XMLID_257_" class="st0" x1="94.6" y1="20.1" x2="100.5" y2="9.9"/>
<line id="XMLID_256_" class="st0" x1="12.8" y1="67.3" x2="1" y2="67.3"/>
<path id="XMLID_255_" class="st0" d="M190.8,65.8c-4.5,0-8.8,0.8-12.9,2.2c-8.4-21.6-29.3-36.9-53.9-36.9c-30.1,0-54.8,23-57.6,52.3
	C61.6,80.6,55.9,79,49.9,79c-18.5,0-33.6,15-33.6,33.6c0,18.5,15,33.6,33.6,33.6h140.9c22.2,0,40.2-18,40.2-40.2
	S213,65.8,190.8,65.8z"/>
</svg>
