<?xml version="1.0" encoding="utf-8"?>
<!-- Generator: Adobe Illustrator 19.0.0, SVG Export Plug-In . SVG Version: 6.00 Build 0)  -->
<svg version="1.1" id="Layer_1" xmlns="http://www.w3.org/2000/svg" xmlns:xlink="http://www.w3.org/1999/xlink" x="0px" y="0px"
	 viewBox="0 0 132.9 115.9" style="enable-background:new 0 0 132.9 115.9;" xml:space="preserve">
<style type="text/css">
	.st0{fill:none;stroke:#5A5C5C;stroke-width:2;stroke-linecap:round;stroke-linejoin:round;stroke-miterlimit:10;}
</style>
<path id="XMLID_2040_" class="st0" d="M107.5,22.1c-2.7,0-5.4,0.5-7.8,1.3C94.6,10.3,82,1,67.1,1C48.8,1,33.9,14.9,32.2,32.7
	c-3-1.7-6.4-2.7-10.1-2.7C10.9,30,1.8,39.1,1.8,50.4c0,11.2,9.1,20.3,20.3,20.3h85.4c13.4,0,24.3-10.9,24.3-24.3
	S121,22.1,107.5,22.1z"/>
<line id="XMLID_2039_" class="st0" x1="100.3" y1="75.4" x2="60.6" y2="114.9"/>
<line id="XMLID_2038_" class="st0" x1="130.6" y1="75.4" x2="91" y2="114.9"/>
<line id="XMLID_2_" class="st0" x1="40.7" y1="75.4" x2="1" y2="114.9"/>
<line id="XMLID_1_" class="st0" x1="71" y1="75.4" x2="31.3" y2="114.9"/>
</svg>
