<svg id="Layer_1" xmlns="http://www.w3.org/2000/svg" width="621.6" height="49.8" viewBox="0 0 621.6 49.8"><style>.st0{fill:#FDFDFD;}</style><path class="st0" d="M41.5 40.5h-8.6l-6.8-27H26l-6.6 27h-8.9L0 .7h8.7L15 27.8h.1L22 .7h8.2L37 28.2h.1L43.7.7h8.6L41.5 40.5zm36.9-6.4v-15c0-6.9-6.9-8.2-12.7-8.2-6.5 0-13.1 2.3-13.5 9.6h7.9c.3-3.1 2.2-4.4 5.2-4.4 2.8 0 5.1.6 5.1 3.9.3 6.5-19.1-.6-19.2 12.5 0 5.9 4.3 8.6 9.8 8.6 3.6 0 7.2-.9 9.7-3.5.1.9.3 1.9.6 2.8h8c-.7-1-.9-3.7-.9-6.3zm-8-4.7c0 1.8-.2 6.6-6.4 6.6-2.6 0-4.9-.8-4.9-3.7 0-2.9 2.3-3.8 4.7-4.3 2.4-.4 5.2-.5 6.6-1.7v3.1zm23.2-17.7h5.8V17h-5.8v14.3c0 2.7.7 3.4 3.3 3.4.9 0 1.7-.1 2.4-.2v6.2c-1.3.2-3 .3-4.6.3-4.9 0-9.1-1-9.1-6.9V17h-4.8v-5.3h4.8V3.1h7.9l.1 8.6zm16 19.5c0 3.4 3 4.9 6.1 4.9 2.2 0 5.2-.9 5.2-3.7 0-2.4-3.4-3.3-9-4.5-4.6-1-9.1-2.5-9.1-7.7 0-7.3 6.4-9.2 12.5-9.2 6.2 0 12.1 2.1 12.7 9.2h-7.6c-.2-3-2.5-3.9-5.4-3.9-1.8 0-4.4.3-4.4 2.7 0 2.8 4.5 3.2 9 4.3 4.6 1 9.1 2.7 9.1 8.1 0 7.6-6.6 10-13.2 10-6.7 0-13.3-2.5-13.5-10.1l7.6-.1zM146.3 11c-9 0-14.9 6-14.9 15.2 0 9.1 5.9 15.1 14.9 15.1 9.1 0 14.9-6 14.9-15.1 0-9.2-5.8-15.2-14.9-15.2zm0 24.3c-5.4 0-7-4.6-7-9.2s1.6-9.2 7-9.2 7 4.6 7 9.2c0 4.7-1.6 9.2-7 9.2zm18.8-23.6h7.5v4h.2c2-3.3 5.5-4.8 8.8-4.8 8.4 0 10.6 4.8 10.6 11.9v17.7h-7.9V24.3c0-4.8-1.3-7.1-5.1-7.1-4.3 0-6.1 2.4-6.1 8.2v15.1h-8V11.7zM209.3.8h16.9c10.1 0 17.7 6.4 17.7 19.3 0 11.3-5.8 19.8-17.7 19.8h-16.9V.8zm8.6 31.9h7.7c5 0 9.7-3.1 9.7-11.7 0-7.9-2.8-12.9-11.3-12.9h-6.1v24.6zm36.8-5c.2 5 2.6 7.2 7 7.2 3.1 0 5.6-1.9 6.1-3.7h6.8c-2.2 6.7-6.8 9.5-13.3 9.5-8.9 0-14.5-6.1-14.5-14.9 0-8.5 5.9-15 14.5-15 9.6 0 14.3 8.1 13.7 16.8h-20.3v.1zm12.6-5c-.7-3.9-2.4-6-6.2-6-5 0-6.3 3.8-6.5 6h12.7zm26.4 17.2h-8.6l-9.7-28.3h8.2l6 19.3h.1l6-19.3h7.7l-9.7 28.3zm17.1-12.2c.2 5 2.6 7.2 7 7.2 3.1 0 5.6-1.9 6.1-3.7h6.8c-2.2 6.7-6.8 9.5-13.3 9.5-8.9 0-14.5-6.1-14.5-14.9 0-8.5 5.9-15 14.5-15 9.6 0 14.3 8.1 13.7 16.8h-20.3v.1zm12.7-5c-.7-3.9-2.4-6-6.2-6-5 0-6.3 3.8-6.5 6h12.7zm12-21.9h7.8v39.1h-7.8V.8zm26.6 10.1c8.9 0 14.7 5.9 14.7 15 0 9-5.8 14.9-14.7 14.9-8.9 0-14.6-5.9-14.6-14.9 0-9.1 5.8-15 14.6-15zm0 23.9c5.3 0 6.9-4.5 6.9-9s-1.6-9.1-6.9-9.1c-5.3 0-6.8 4.5-6.8 9.1s1.6 9 6.8 9zm18.7-23.2h7.4v3.6h.1c1.9-3.1 4.9-4.4 8.4-4.4 8.9 0 12.9 7.2 12.9 15.2 0 7.6-4.1 14.6-12.4 14.6-3.5 0-6.6-1.5-8.5-4.3h-.1v13.5h-7.8V11.6zm21 14.3c0-4.5-1.8-9.1-6.8-9.1-5.1 0-6.7 4.5-6.7 9.1s1.8 9 6.8 9c5.1-.1 6.7-4.4 6.7-9zm18.2 1.8c.2 5 2.6 7.2 7 7.2 3.1 0 5.6-1.9 6.1-3.7h6.8c-2.2 6.7-6.8 9.5-13.3 9.5-8.9 0-14.5-6.1-14.5-14.9 0-8.5 5.9-15 14.5-15 9.6 0 14.3 8.1 13.7 16.8H420v.1zm12.6-5c-.7-3.9-2.4-6-6.2-6-5 0-6.3 3.8-6.5 6h12.7zm11.8-11.1h7.4v5.3h.1c1.5-3.6 5.1-6 9-6 .6 0 1.1.1 1.7.3v7.2c-.7-.2-1.9-.3-2.8-.3-5.7 0-7.7 4.1-7.7 9.1V40h-7.8V11.6h.1zm60.3 2.4c-.6-3.9-4.3-6.8-8.5-6.8-7.7 0-10.6 6.6-10.6 13.4 0 6.5 2.9 13.1 10.6 13.1 5.3 0 8.2-3.6 8.9-8.8h8.3c-.9 9.8-7.6 16-17.2 16-12 0-19.2-9-19.2-20.3C477 9 484.2 0 496.2 0c8.5 0 15.8 5 16.9 14.1h-8.4V14zM517.1.8h7.8v39.1h-7.8V.8zm26.6 10.1c8.9 0 14.7 5.9 14.7 15 0 9-5.8 14.9-14.7 14.9-8.9 0-14.6-5.9-14.6-14.9 0-9.1 5.7-15 14.6-15zm0 23.9c5.3 0 6.9-4.5 6.9-9s-1.6-9.1-6.9-9.1-6.8 4.5-6.8 9.1 1.6 9 6.8 9zm45.2 5.1h-7.4V36h-.2c-2 3.2-5.4 4.7-8.7 4.7-8.3 0-10.4-4.7-10.4-11.7V11.6h7.8v16c0 4.7 1.3 7 5 7 4.2 0 6-2.4 6-8.1V11.6h7.8v28.3h.1zm25.3-3.6c-1.9 3.1-5 4.4-8.7 4.4-8.5 0-12.7-7.3-12.7-15.2 0-7.6 4.2-14.7 12.5-14.7 3.3 0 6.6 1.4 8.4 4.2h.1V.8h7.8v39.1h-7.4v-3.6zm-6.8-19.6c-5.1 0-6.8 4.4-6.8 9 0 4.4 2 9.1 6.8 9.1 5.1 0 6.7-4.5 6.7-9.1s-1.7-9-6.7-9z"/></svg>